# xmcd CD database file
#
# Track frame offsets:
#	150
#	14964
#	28066
#	46351
#	56294
#	70253
#	80832
#	96266
#	118567
#	129979
#	145502
#	159532
#	173546
#	186809
#	200615
#	215818
#	229456
#	240486
#
# Disc length: 3344 seconds
#
# Revision: 0
# Processed by: cddbd v1.5.1PL0 Copyright (c) Steve Scherf et al.
# Submitted via: CDex 1.51
#
DISCID=030d0e12
DTITLE=Louis Armstrong - The Best
DYEAR=1900
DGENRE=Jazz
TTITLE0=Louis Armstrong - When it's sleepy time down south
TTITLE1=Louis Armstrong - Blueberry hill
TTITLE2=Louis Armstrong - When you're smiling
TTITLE3=Louis Armstrong - I still get jealous
TTITLE4=Louis Armstrong - Chloe
TTITLE5=Louis Armstrong - The dummy song
TTITLE6=Louis Armstrong - La vie en rose
TTITLE7=Louis Armstrong - Skokiaan
TTITLE8=Louis Armstrong and Bing Crosby - Gone fishin'
TTITLE9=Louis Armstrong - (When we are dancin') I get ideas
TTITLE10=Louis Armstrong - Kiss of fire
TTITLE11=Louis Armstrong - That lucky old Sun
TTITLE12=Louis Armstrong - It takes two to tango
TTITLE13=Louis Armstrong - A kiss to build a dream on
TTITLE14=Louis Armstrong - Mack the knife
TTITLE15=Louis Armstrong - Sittin' in the sun
TTITLE16=Louis Armstrong - Hello Dolly
TTITLE17=Louis Armstrong - What a wonderful world
EXTD=
EXTT0=
EXTT1=
EXTT2=
EXTT3=
EXTT4=
EXTT5=
EXTT6=
EXTT7=
EXTT8=
EXTT9=
EXTT10=
EXTT11=
EXTT12=
EXTT13=
EXTT14=
EXTT15=
EXTT16=
EXTT17=
PLAYORDER=
